<svg version="1.1" xmlns="http://www.w3.org/2000/svg" xmlns:xlink="http://www.w3.org/1999/xlink" width="100%" height="100%" viewBox="0,0,172,16">
  <g id="1 cm. Tick Group" fill="none" fill-rule="nonzero" stroke="none" stroke-width="none" stroke-linecap="butt" stroke-linejoin="miter" stroke-miterlimit="10" stroke-dasharray="" stroke-dashoffset="0" font-family="none" font-weight="none" font-size="none" text-anchor="none" style="mix-blend-mode: normal">
    <path d="M10,0v15.11811" id="1 cm. Tick no. 0" fill="none" stroke="#E7E1D6" stroke-width="1"/>
    <text x="6" y="25.11811" id="1 cm. label no. 0" fill="#E7E1D6" stroke="none" stroke-width="1" font-family="monospace" font-weight="bold" font-size="0" text-anchor="start">0</text>
    <path d="M47.79528,0v15.11811" id="1 cm. Tick no. 1" fill="none" stroke="#E7E1D6" stroke-width="1"/>
    <text x="43.79528" y="25.11811" id="1 cm. label no. 1" fill="#E7E1D6" stroke="none" stroke-width="1" font-family="monospace" font-weight="bold" font-size="0" text-anchor="start">1</text>
    <path d="M85.59055,0v15.11811" id="1 cm. Tick no. 2" fill="none" stroke="#E7E1D6" stroke-width="1"/>
    <text x="81.59055" y="25.11811" id="1 cm. label no. 2" fill="#E7E1D6" stroke="none" stroke-width="1" font-family="monospace" font-weight="bold" font-size="0" text-anchor="start">2</text>
    <path d="M123.38583,0v15.11811" id="1 cm. Tick no. 3" fill="none" stroke="#E7E1D6" stroke-width="1"/>
    <text x="119.38583" y="25.11811" id="1 cm. label no. 3" fill="#E7E1D6" stroke="none" stroke-width="1" font-family="monospace" font-weight="bold" font-size="0" text-anchor="start">3</text>
    <path d="M161.1811,0v15.11811" id="1 cm. Tick no. 4" fill="none" stroke="#E7E1D6" stroke-width="1"/>
    <text x="165.1811" y="25.11811" id="1 cm. label no. 4" fill="#E7E1D6" stroke="none" stroke-width="1" font-family="monospace" font-weight="bold" font-size="0" text-anchor="end">4</text>
  </g>
  <g id="1/10th cm. Tick Group" fill="none" fill-rule="nonzero" stroke="#E7E1D6" stroke-width="1" stroke-linecap="butt" stroke-linejoin="miter" stroke-miterlimit="10" stroke-dasharray="" stroke-dashoffset="0" font-family="none" font-weight="none" font-size="none" text-anchor="none" style="mix-blend-mode: normal">
    <path d="M13.77953,0v7.55906" id="1/10th cm. Tick no. 1"/>
    <path d="M17.55906,0v7.55906" id="1/10th cm. Tick no. 2"/>
    <path d="M21.33858,0v7.55906" id="1/10th cm. Tick no. 3"/>
    <path d="M25.11811,0v7.55906" id="1/10th cm. Tick no. 4"/>
    <path d="M28.89764,0v7.55906" id="1/10th cm. Tick no. 5"/>
    <path d="M32.67717,0v7.55906" id="1/10th cm. Tick no. 6"/>
    <path d="M36.45669,0v7.55906" id="1/10th cm. Tick no. 7"/>
    <path d="M40.23622,0v7.55906" id="1/10th cm. Tick no. 8"/>
    <path d="M44.01575,0v7.55906" id="1/10th cm. Tick no. 9"/>
    <path d="M51.5748,0v7.55906" id="1/10th cm. Tick no. 11"/>
    <path d="M55.35433,0v7.55906" id="1/10th cm. Tick no. 12"/>
    <path d="M59.13386,0v7.55906" id="1/10th cm. Tick no. 13"/>
    <path d="M62.91339,0v7.55906" id="1/10th cm. Tick no. 14"/>
    <path d="M66.69291,0v7.55906" id="1/10th cm. Tick no. 15"/>
    <path d="M70.47244,0v7.55906" id="1/10th cm. Tick no. 16"/>
    <path d="M74.25197,0v7.55906" id="1/10th cm. Tick no. 17"/>
    <path d="M78.0315,0v7.55906" id="1/10th cm. Tick no. 18"/>
    <path d="M81.81102,0v7.55906" id="1/10th cm. Tick no. 19"/>
    <path d="M89.37008,0v7.55906" id="1/10th cm. Tick no. 21"/>
    <path d="M93.14961,0v7.55906" id="1/10th cm. Tick no. 22"/>
    <path d="M96.92913,0v7.55906" id="1/10th cm. Tick no. 23"/>
    <path d="M100.70866,0v7.55906" id="1/10th cm. Tick no. 24"/>
    <path d="M104.48819,0v7.55906" id="1/10th cm. Tick no. 25"/>
    <path d="M108.26772,0v7.55906" id="1/10th cm. Tick no. 26"/>
    <path d="M112.04724,0v7.55906" id="1/10th cm. Tick no. 27"/>
    <path d="M115.82677,0v7.55906" id="1/10th cm. Tick no. 28"/>
    <path d="M119.6063,0v7.55906" id="1/10th cm. Tick no. 29"/>
    <path d="M127.16535,0v7.55906" id="1/10th cm. Tick no. 31"/>
    <path d="M130.94488,0v7.55906" id="1/10th cm. Tick no. 32"/>
    <path d="M134.72441,0v7.55906" id="1/10th cm. Tick no. 33"/>
    <path d="M138.50394,0v7.55906" id="1/10th cm. Tick no. 34"/>
    <path d="M142.28346,0v7.55906" id="1/10th cm. Tick no. 35"/>
    <path d="M146.06299,0v7.55906" id="1/10th cm. Tick no. 36"/>
    <path d="M149.84252,0v7.55906" id="1/10th cm. Tick no. 37"/>
    <path d="M153.62205,0v7.55906" id="1/10th cm. Tick no. 38"/>
    <path d="M157.40157,0v7.55906" id="1/10th cm. Tick no. 39"/>
  </g>
</svg>